<svg xmlns="http://www.w3.org/2000/svg" viewBox="0 0 512 512" width="512" height="512">
  <defs>
    <linearGradient id="fond" x1="0" y1="0" x2="0" y2="1">
      <stop offset="0" stop-color="#1b2330" />
      <stop offset="1" stop-color="#0f1115" />
    </linearGradient>
    <linearGradient id="feuille" x1="0" y1="0" x2="0" y2="1">
      <stop offset="0" stop-color="#5fce8a" />
      <stop offset="1" stop-color="#2f9a5c" />
    </linearGradient>
  </defs>
  <rect width="512" height="512" rx="112" fill="url(#fond)" />

  <!-- Feuille : 7 folioles arrondies qui rayonnent (discret, mais on reconnaît). -->
  <g transform="translate(256,360)" fill="url(#feuille)">
    <g transform="rotate(0)  scale(212)"><path d="M0,0 C-0.13,-0.33 -0.07,-0.82 0,-1 C0.07,-0.82 0.13,-0.33 0,0 Z"/></g>
    <g transform="rotate(30) scale(186)"><path d="M0,0 C-0.13,-0.33 -0.07,-0.82 0,-1 C0.07,-0.82 0.13,-0.33 0,0 Z"/></g>
    <g transform="rotate(-30) scale(186)"><path d="M0,0 C-0.13,-0.33 -0.07,-0.82 0,-1 C0.07,-0.82 0.13,-0.33 0,0 Z"/></g>
    <g transform="rotate(58) scale(142)"><path d="M0,0 C-0.13,-0.33 -0.07,-0.82 0,-1 C0.07,-0.82 0.13,-0.33 0,0 Z"/></g>
    <g transform="rotate(-58) scale(142)"><path d="M0,0 C-0.13,-0.33 -0.07,-0.82 0,-1 C0.07,-0.82 0.13,-0.33 0,0 Z"/></g>
    <g transform="rotate(84) scale(98)"><path d="M0,0 C-0.13,-0.33 -0.07,-0.82 0,-1 C0.07,-0.82 0.13,-0.33 0,0 Z"/></g>
    <g transform="rotate(-84) scale(98)"><path d="M0,0 C-0.13,-0.33 -0.07,-0.82 0,-1 C0.07,-0.82 0.13,-0.33 0,0 Z"/></g>
  </g>
  <!-- Tige -->
  <rect x="250" y="356" width="12" height="56" rx="6" fill="#2f9a5c" />
</svg>
