<svg xmlns="http://www.w3.org/2000/svg" viewBox="0 0 512 512" width="512" height="512">
  <defs>
    <linearGradient id="verre" x1="0.15" y1="0" x2="0.85" y2="1">
      <stop offset="0" stop-color="#fbfdff" />
      <stop offset="0.5" stop-color="#e2e8f0" />
      <stop offset="1" stop-color="#c8d0db" />
    </linearGradient>
    <radialGradient id="reflet" cx="0.3" cy="0.2" r="0.75">
      <stop offset="0" stop-color="#ffffff" stop-opacity="0.95" />
      <stop offset="0.45" stop-color="#ffffff" stop-opacity="0.18" />
      <stop offset="1" stop-color="#ffffff" stop-opacity="0" />
    </radialGradient>
    <linearGradient id="feuille" x1="0" y1="0" x2="0" y2="1">
      <stop offset="0" stop-color="#3a3f48" />
      <stop offset="1" stop-color="#14171b" />
    </linearGradient>
  </defs>

  <!-- Dalle de verre + reflet (liquid glass) -->
  <rect width="512" height="512" fill="url(#verre)" />
  <rect width="512" height="512" fill="url(#reflet)" />

  <!-- Ombre douce (copie sombre décalée, sans filtre pour un rendu fiable) -->
  <g transform="translate(258,366)" fill="#0c0f14" opacity="0.16">
    <g transform="rotate(0)   scale(206)"><path d="M0,0 C-0.13,-0.33 -0.07,-0.82 0,-1 C0.07,-0.82 0.13,-0.33 0,0 Z"/></g>
    <g transform="rotate(30)  scale(182)"><path d="M0,0 C-0.13,-0.33 -0.07,-0.82 0,-1 C0.07,-0.82 0.13,-0.33 0,0 Z"/></g>
    <g transform="rotate(-30) scale(182)"><path d="M0,0 C-0.13,-0.33 -0.07,-0.82 0,-1 C0.07,-0.82 0.13,-0.33 0,0 Z"/></g>
    <g transform="rotate(58)  scale(140)"><path d="M0,0 C-0.13,-0.33 -0.07,-0.82 0,-1 C0.07,-0.82 0.13,-0.33 0,0 Z"/></g>
    <g transform="rotate(-58) scale(140)"><path d="M0,0 C-0.13,-0.33 -0.07,-0.82 0,-1 C0.07,-0.82 0.13,-0.33 0,0 Z"/></g>
    <g transform="rotate(84)  scale(96)"><path d="M0,0 C-0.13,-0.33 -0.07,-0.82 0,-1 C0.07,-0.82 0.13,-0.33 0,0 Z"/></g>
    <g transform="rotate(-84) scale(96)"><path d="M0,0 C-0.13,-0.33 -0.07,-0.82 0,-1 C0.07,-0.82 0.13,-0.33 0,0 Z"/></g>
  </g>
  <!-- Feuille graphite -->
  <g transform="translate(256,360)" fill="url(#feuille)">
    <g transform="rotate(0)   scale(206)"><path d="M0,0 C-0.13,-0.33 -0.07,-0.82 0,-1 C0.07,-0.82 0.13,-0.33 0,0 Z"/></g>
    <g transform="rotate(30)  scale(182)"><path d="M0,0 C-0.13,-0.33 -0.07,-0.82 0,-1 C0.07,-0.82 0.13,-0.33 0,0 Z"/></g>
    <g transform="rotate(-30) scale(182)"><path d="M0,0 C-0.13,-0.33 -0.07,-0.82 0,-1 C0.07,-0.82 0.13,-0.33 0,0 Z"/></g>
    <g transform="rotate(58)  scale(140)"><path d="M0,0 C-0.13,-0.33 -0.07,-0.82 0,-1 C0.07,-0.82 0.13,-0.33 0,0 Z"/></g>
    <g transform="rotate(-58) scale(140)"><path d="M0,0 C-0.13,-0.33 -0.07,-0.82 0,-1 C0.07,-0.82 0.13,-0.33 0,0 Z"/></g>
    <g transform="rotate(84)  scale(96)"><path d="M0,0 C-0.13,-0.33 -0.07,-0.82 0,-1 C0.07,-0.82 0.13,-0.33 0,0 Z"/></g>
    <g transform="rotate(-84) scale(96)"><path d="M0,0 C-0.13,-0.33 -0.07,-0.82 0,-1 C0.07,-0.82 0.13,-0.33 0,0 Z"/></g>
  </g>
  <rect x="250" y="356" width="12" height="54" rx="6" fill="#14171b" />
</svg>
