<svg xmlns="http://www.w3.org/2000/svg" viewBox="0 0 512 512" width="512" height="512">
  <defs>
    <linearGradient id="verre" x1="0.2" y1="0" x2="0.8" y2="1">
      <stop offset="0" stop-color="#333942" />
      <stop offset="1" stop-color="#262b33" />
    </linearGradient>
    <radialGradient id="reflet" cx="0.32" cy="0.18" r="0.9">
      <stop offset="0" stop-color="#ffffff" stop-opacity="0.16" />
      <stop offset="0.55" stop-color="#ffffff" stop-opacity="0.03" />
      <stop offset="1" stop-color="#ffffff" stop-opacity="0" />
    </radialGradient>
    <linearGradient id="encre" x1="0" y1="0" x2="0" y2="1">
      <stop offset="0" stop-color="#eef2f6" />
      <stop offset="1" stop-color="#b3bcc8" />
    </linearGradient>
  </defs>
  <rect x="-6" y="-6" width="524" height="524" fill="url(#verre)" />
  <rect x="-6" y="-6" width="524" height="524" fill="url(#reflet)" />

  <g fill="url(#encre)" transform="translate(8,0)">
    <!-- Folioles de gauche : dressées, qui montent (courbe de croissance) -->
    <g transform="translate(110,372) rotate(-8) scale(140)"><path d="M0,0 C-0.12,-0.32 -0.06,-0.82 0,-1 C0.06,-0.82 0.12,-0.32 0,0 Z"/></g>
    <g transform="translate(160,372) rotate(-5) scale(196)"><path d="M0,0 C-0.12,-0.32 -0.06,-0.82 0,-1 C0.06,-0.82 0.12,-0.32 0,0 Z"/></g>
    <g transform="translate(208,372) rotate(-2) scale(250)"><path d="M0,0 C-0.12,-0.32 -0.06,-0.82 0,-1 C0.06,-0.82 0.12,-0.32 0,0 Z"/></g>
    <!-- Épine centrale + éventail à droite -->
    <g transform="translate(256,372)">
      <g transform="rotate(0)  scale(264)"><path d="M0,0 C-0.12,-0.32 -0.06,-0.82 0,-1 C0.06,-0.82 0.12,-0.32 0,0 Z"/></g>
      <g transform="rotate(32) scale(204)"><path d="M0,0 C-0.12,-0.32 -0.06,-0.82 0,-1 C0.06,-0.82 0.12,-0.32 0,0 Z"/></g>
      <g transform="rotate(58) scale(156)"><path d="M0,0 C-0.12,-0.32 -0.06,-0.82 0,-1 C0.06,-0.82 0.12,-0.32 0,0 Z"/></g>
      <g transform="rotate(84) scale(112)"><path d="M0,0 C-0.12,-0.32 -0.06,-0.82 0,-1 C0.06,-0.82 0.12,-0.32 0,0 Z"/></g>
    </g>
    <rect x="251" y="368" width="10" height="66" rx="5" />
  </g>
</svg>
